<svg xmlns="http://www.w3.org/2000/svg" viewBox="0 0 1600 1000" role="img" aria-labelledby="t"><title id="t">Illustration of a playful level path where each stop is an emotion, next to a daily check-in card</title>
<defs><linearGradient id="bg" x1="0" y1="0" x2="1" y2="1"><stop offset="0" stop-color="#ffe4d1"/><stop offset=".55" stop-color="#f7dcf0"/><stop offset="1" stop-color="#ddd6fe"/></linearGradient>
<filter id="sh" x="-20%" y="-20%" width="140%" height="160%"><feDropShadow dx="0" dy="18" stdDeviation="22" flood-color="#5b21b6" flood-opacity=".16"/></filter></defs>
<rect width="1600" height="1000" fill="url(#bg)"/>
<path d="M120 860 C 320 860, 300 620, 520 640 S 700 820, 860 640 S 760 360, 980 330 S 1080 150, 1200 130" fill="none" stroke="#fff" stroke-width="44" stroke-linecap="round" opacity=".85"/>
<path d="M120 860 C 320 860, 300 620, 520 640 S 700 820, 860 640 S 760 360, 980 330 S 1080 150, 1200 130" fill="none" stroke="#c4b5fd" stroke-width="6" stroke-dasharray="2 22" stroke-linecap="round"/>
<g filter="url(#sh)">
<circle cx="200" cy="858" r="54" fill="#fbbf24"/><circle cx="520" cy="640" r="54" fill="#60a5fa"/><circle cx="820" cy="700" r="54" fill="#f87171"/><circle cx="905" cy="455" r="70" fill="#34d399"/><circle cx="1200" cy="130" r="54" fill="#fff" stroke="#c4b5fd" stroke-width="6" stroke-dasharray="10 10"/>
</g>
<circle cx="905" cy="455" r="92" fill="none" stroke="#34d399" stroke-width="6" opacity=".35"/>
<g fill="#1f2937"><circle cx="184" cy="848" r="6"/><circle cx="216" cy="848" r="6"/><circle cx="504" cy="632" r="6"/><circle cx="536" cy="632" r="6"/><circle cx="804" cy="692" r="6"/><circle cx="836" cy="692" r="6"/><circle cx="885" cy="442" r="7"/><circle cx="925" cy="442" r="7"/></g>
<g fill="none" stroke="#1f2937" stroke-width="5" stroke-linecap="round"><path d="M182 872q18 16 36 0"/><path d="M502 664q18 -14 36 0"/><path d="M802 720h36"/><path d="M880 474q25 20 50 0"/><path d="M798 678l14 6M842 678l-14 6"/></g>
<path d="M1200 106l7 15 16 2-12 11 3 16-14-8-14 8 3-16-12-11 16-2z" fill="#c4b5fd"/>
<g fill="#fbbf24" opacity=".8"><path d="M330 300l6 13 14 2-10 10 2 14-12-7-12 7 2-14-10-10 14-2z"/><path d="M1420 700l5 10 11 2-8 8 2 11-10-5-10 5 2-11-8-8 11-2z"/></g>
<!-- check-in card -->
<g filter="url(#sh)"><rect x="1080" y="400" width="400" height="460" rx="40" fill="#ffffff"/></g>
<rect x="1124" y="448" width="200" height="18" rx="9" fill="#1f2937"/><rect x="1124" y="480" width="140" height="14" rx="7" fill="#9ca3af"/>
<g><circle cx="1156" cy="580" r="30" fill="#fbbf24"/><circle cx="1236" cy="580" r="30" fill="#60a5fa"/><circle cx="1316" cy="580" r="30" fill="#34d399" stroke="#1f2937" stroke-width="4"/><circle cx="1396" cy="580" r="30" fill="#f87171"/></g>
<rect x="1124" y="650" width="312" height="14" rx="7" fill="#e5e7eb"/><rect x="1124" y="678" width="260" height="14" rx="7" fill="#e5e7eb"/><rect x="1124" y="706" width="200" height="14" rx="7" fill="#e5e7eb"/>
<rect x="1124" y="770" width="312" height="52" rx="26" fill="#7c3aed"/><rect x="1230" y="790" width="100" height="12" rx="6" fill="#fff"/>
</svg>
