<svg id="Capa_1" data-name="Capa 1" xmlns="http://www.w3.org/2000/svg" viewBox="0 0 1576.64 350.15"><defs><style>.cls-1{fill:#263577;}.cls-2{fill:#e30613;}</style></defs><path class="cls-1" d="M242.46,236c-4,5.62-7.54,11.56-11.25,17.38q-14.42,22.56-28.74,45.19a158.09,158.09,0,0,1-28.16,33.82c-11.65,10.37-24.66,18.4-39.69,22.92a84,84,0,0,1-24.3,3.62H6.77a4,4,0,0,1-1.93-.19,5,5,0,0,1,1.1-2.14L73,251Q141.46,143.25,209.9,35.54a68,68,0,0,1,14.86-17.16,42,42,0,0,1,20.93-9.3,36.91,36.91,0,0,1,20.75,3.35c8.22,3.82,14.66,9.81,20.12,16.94,1.65,2.16,3.14,4.44,4.6,6.73q19,29.85,37.92,59.68a6,6,0,0,1,1,1.82l-1.25,1.93Q295,152.82,261.15,206.1,253,218.9,244.93,231.7c-.37.59-1.18,1.08-.73,2h0c-.46-.17-.48.1-.44.44l0,0c-.37-.07-.44.15-.44.44l0,0c-.46.11-.5.46-.48.84l0,0C242.59,235.39,242.52,235.66,242.46,236Z" transform="translate(-4.84 -8.77)"/><path class="cls-2" d="M244.2,233.69c-.45-.91.36-1.4.73-2q8.08-12.81,16.22-25.6Q295,152.82,328.84,99.53l1.25-1.93c2.27,3.51,4.56,7,6.8,10.53l158,248.56c.37.59.72,1.18,1.15,1.89a3.8,3.8,0,0,1-2.23.26q-35.56,0-71.12,0c-32.35,0-64.7-.16-97.05.07-16.9.12-29.55-11.66-32.3-26.82a32,32,0,0,1,4.32-22.91q6.4-10.56,12.94-21a45.59,45.59,0,0,0,6.67-17.89c3.17-22.39-10.75-45.07-34.64-49.43-13.95-2.54-26.18,1.53-36.53,11.23C245.45,232.64,245.05,233.43,244.2,233.69Z" transform="translate(-4.84 -8.77)"/><path class="cls-1" d="M538.21,130.9c3.14-9.57,6.16-18.75,9.14-27.94,3.1-9.53,6.08-19.1,9.28-28.59,1.79-5.31.33-4.82,6.88-4.86,2.34,0,4.68,0,7,.06a4,4,0,0,1,1,.29c.53,1.57-.25,2.92-.71,4.33Q559,110.93,547.23,147.64c-1.26,3.9-1.29,3.9-5.58,3.92-2.67,0-5.36-.17-8,.05s-3.73-.94-4.51-3.42c-4.15-13.22-8.49-26.38-12.78-39.55-1.74-5.36-3.5-10.72-5.29-16.18-2.05,1.25-2,3.3-2.55,5-5.54,16.64-11,33.3-16.46,50-1.38,4.19-1.4,4.18-5.91,4.2h-6.51c-5.92,0-4.65.28-6.2-4.41-4.85-14.75-9.52-29.56-14.26-44.35q-4.51-14.07-9-28.13c-.49-1.56-1.48-3-.74-5.16,3.55,0,7.23.25,10.86-.07,3-.27,4,1.12,4.82,3.7,3.63,11.81,7.41,23.57,11.14,35.34q3,9.55,6.07,19.1c.29.92.75,1.8,1.4,3.34.75-2.12,1.31-3.59,1.81-5.08,5.71-17.28,11.36-34.57,17.15-51.82,1.54-4.58.35-4.61,6.18-4.48,3,.07,6.6-1.26,8.71.73,1.82,1.72,2.09,5.12,3,7.81q7.93,24.54,15.82,49.1A7.92,7.92,0,0,0,538.21,130.9Z" transform="translate(-4.84 -8.77)"/><path class="cls-2" d="M1566.38,99.11q-6.29,10.78-12.58,21.57c-3.61,6.21-7.16,12.45-10.83,18.62-2.44,4.12-7.4,4.17-9.85.07-6.93-11.61-13.78-23.28-20.69-34.91-.82-1.38-1.35-3-3.07-4.17-1.18,1.52-.69,3.22-.7,4.74,0,14,0,28.09,0,42.13,0,4.37,0,4.38-4.31,4.42-2.51,0-5-.05-7.52,0-1.7,0-2.44-.72-2.37-2.4,0-1,0-2,0-3V75c0-1,0-2,0-3-.07-1.64.58-2.54,2.32-2.44a2.8,2.8,0,0,0,.5,0c9-.62,9.06-.62,13.62,7.21q12.23,21,24.43,42c.81,1.4,1.73,2.75,2.61,4.13,1.73-.57,2-2,2.61-3.11,8.81-15.35,17.66-30.68,26.31-46.13,1.64-2.93,3.33-4.37,6.93-4.22,7.63.31,7.65.07,7.66,7.71l.06,69.71c0,.83,0,1.67,0,2.5.09,1.78-.85,2.38-2.47,2.25-.33,0-.67,0-1,0-3.31-.23-7.44,1.38-9.7-.65s-.78-6.33-.82-9.6c-.13-12.37-.07-24.74-.09-37.11V99.34Z" transform="translate(-4.84 -8.77)"/><path class="cls-2" d="M1305.52,110.31c0-12.36,0-24.72,0-37.08,0-3.61.08-3.69,3.5-3.7,11.18,0,22.36,0,33.54,0a45.19,45.19,0,0,1,13.29,2.21c21.55,6.84,29.73,25.55,27.47,44-2.67,21.74-18.14,35.05-41.22,35.74-11,.32-22,.1-33,.08-3.45,0-3.52-.09-3.53-3.68C1305.5,135.37,1305.52,122.84,1305.52,110.31Zm14.83-.11c0,8.36.08,16.72,0,25.08,0,2.61.82,3.47,3.45,3.39,5.84-.18,11.7.08,17.54-.11,14.86-.5,25.06-9.1,27.09-23.21,2-13.53-3.33-29.51-23.44-32.5-7.44-1.1-15-.25-22.53-.38-2.38,0-2.05,1.69-2.06,3.15Q1320.34,97.91,1320.35,110.2Z" transform="translate(-4.84 -8.77)"/><path class="cls-2" d="M1393.68,110.67c0-24.43,17.8-42.18,42.45-42.25,25-.07,43,17.63,43,42.21,0,24.27-18.08,42-42.74,42S1393.71,135,1393.68,110.67Zm70.52-.1c0-15.66-9.7-27-25-28.66-12.51-1.36-25.92,5.34-29.85,21.1a33.84,33.84,0,0,0-.39,13,27.18,27.18,0,0,0,20.68,22.6C1448.46,142.62,1464.19,129.88,1464.2,110.57Z" transform="translate(-4.84 -8.77)"/><path class="cls-2" d="M1120.23,124.85c6,8.89,11.76,17.42,18,26.72-5.36,0-9.78-.06-14.21,0-1.9,0-2.54-1.32-3.36-2.53-4.13-6.08-8.36-12.09-12.32-18.27-1.53-2.39-3.19-3.42-6.07-3.23-4,.27-8,.06-12,.08-5.64,0-5.22-.53-5.23,5,0,5.18-.11,10.36,0,15.54.07,2.55-.69,3.64-3.38,3.43a59.47,59.47,0,0,0-8,0c-2.5.15-3.84-.59-3.5-3.32a21,21,0,0,0,0-2.51V75.14c0-1.17,0-2.34,0-3.51,0-1.42.66-2.15,2.13-2.1,13.49.4,27-1,40.48,1a29.13,29.13,0,0,1,5.31,1.42c14.75,5.19,19.83,17.49,18.57,30.21-1,9.65-5.62,17-14.42,21.41C1121.74,123.83,1121.22,124.23,1120.23,124.85Zm-35.16-26.13c0,4.51,0,9,0,13.53,0,1.44.11,2.75,2,2.73,7.34-.08,14.72.67,22-.58,8.18-1.41,12.84-7.21,12.93-15.41.1-8.41-4.12-13.75-12.46-15.71a21.75,21.75,0,0,0-4.43-.71c-5.68-.11-11.36,0-17-.15-2.53-.08-3.11,1-3,3.27C1085.16,90,1085.07,94.37,1085.07,98.72Z" transform="translate(-4.84 -8.77)"/><path class="cls-1" d="M930.9,69.52c3.83,0,7.83,0,11.82,0,1.48,0,2.13.69,2.11,2.13,0,1,0,2,0,3v71.73c0,.84,0,1.67,0,2.51.11,1.86-.58,2.75-2.59,2.7-3.83-.1-7.66,0-11.35,0-1.14-2-.7-3.88-.71-5.68-.05-8.69-.11-17.39,0-26.08,0-2.63-.85-3.42-3.44-3.39q-17.29.18-34.59,0c-2.47,0-3.11.85-3.09,3.19.11,9.2.06,18.4,0,27.59,0,4.32,0,4.34-4.41,4.37-2.67,0-5.35-.05-8,0-1.7.05-2.46-.67-2.39-2.36,0-1,0-2,0-3V75c0-.84.06-1.68,0-2.51-.18-2.06.54-3.08,2.8-3a87.54,87.54,0,0,0,9,0c2.55-.14,3.08,1.06,3,3.31-.09,7.19-.08,14.38,0,21.57,0,2.81-1.18,6.4.57,8.26,2,2.11,5.69.74,8.64.78,9.19.1,18.38.06,27.57,0,4.15,0,4.2-.07,4.22-4.11,0-8.19,0-16.38,0-24.58C930.2,73.09,929.83,71.38,930.9,69.52Z" transform="translate(-4.84 -8.77)"/><path class="cls-2" d="M1258.9,151.58c-8.51,0-17,0-25.54,0-4,0-4,0-4-3.67q0-37.35,0-74.7c0-3.58.08-3.67,3.52-3.67,17,0,34.06,0,51.09-.06,2.48,0,3.78.56,3.5,3.32-.29,3,1.15,6.66-.61,8.75s-5.66.78-8.59.82c-10,.11-20,0-30,0-4,0-4,0-4,4.15q-.06,6.51,0,13c0,4,.07,4,4.21,4,10,0,20,0,30.05,0,4,0,4,.07,4.06,4.17.13,8.46.13,8.46-8.34,8.46-8.85,0-17.7.06-26.55,0-2.46,0-3.6.55-3.5,3.31.2,5.18,0,10.36.07,15.54,0,3.6.09,3.64,4,3.65,11.52,0,23,0,34.57,0,6.1,0,6.1,0,6.1,6.09,0,6.79,0,6.79-6.93,6.79Z" transform="translate(-4.84 -8.77)"/><path class="cls-2" d="M1212.19,139.06a34.72,34.72,0,0,1,.09,11.9c-3.36,1.26-6.85.56-10.28.58-15,.09-30,.06-45.08,0-3.75,0-3.81-.07-3.82-3.89q0-37.11,0-74.2c0-3.88.07-4,3.75-4q25.29,0,50.59,0c3.64,0,3.66.07,3.74,3.48,0,2.18-.09,4.35,0,6.52s-.76,2.92-2.91,2.9c-7-.09-14,0-21,0-5.51,0-11,.08-16.53,0-2.21,0-2.89.8-2.85,2.92.11,5,.16,10,0,15-.1,2.7,1,3.35,3.48,3.32,10.19-.12,20.37-.06,30.56,0,4.29,0,4.29,0,4.34,4.4.09,8.23.09,8.23-8.06,8.23-8.69,0-17.37,0-26,0-4.18,0-4.2.05-4.22,4.49s0,9,0,13.53,0,4.43,4.28,4.43c11.69,0,23.38,0,35.06,0C1208.91,138.72,1210.6,138.38,1212.19,139.06Z" transform="translate(-4.84 -8.77)"/><path class="cls-1" d="M584.49,110.21q0-18.3,0-36.62c0-4,.07-4.07,4.16-4.07q24.81,0,49.62,0c4.23,0,4.33,0,4.27,4,0,2.8,1.21,6.3-.65,8.2s-5.39.67-8.18.7c-10.19.08-20.38,0-30.57,0-3.74,0-3.78.07-3.81,3.89q-.08,6.78,0,13.55c0,3.68.08,3.72,4,3.73,9.86,0,19.72,0,29.57,0,4.73,0,4.73,0,4.77,4.49.09,8.14.09,8.14-8.16,8.14-8.86,0-17.71,0-26.57,0-3.5,0-3.55.09-3.59,3.62-.05,5.19.11,10.38-.06,15.55-.09,2.72,1,3.35,3.51,3.33,11.87-.11,23.73-.05,35.59-.05,1.17,0,2.34.05,3.51,0,1.46-.06,2.17.58,2.16,2a4.21,4.21,0,0,0,0,.5c.93,10.33.93,10.33-9.42,10.33H589.52c-5.44,0-5,.51-5-5.23Q584.49,128.27,584.49,110.21Z" transform="translate(-4.84 -8.77)"/><path class="cls-1" d="M734.58,151.56c-4.3,0-8.31-.09-12.31,0-2,.07-3-.81-3.66-2.6-1.78-4.51-3.81-8.91-5.58-13.42-.83-2.11-1.9-3.09-4.38-3.06q-16.78.21-33.59,0c-2.48,0-3.53.95-4.35,3.09-1.73,4.52-3.76,8.93-5.5,13.44-.71,1.83-1.7,2.62-3.7,2.55-3.83-.13-7.67,0-11.37,0-1-1.64,0-2.77.49-3.94C661.43,122.81,672.29,98,683,73.18c1.15-2.65,2.43-4.09,5.52-3.72,3.46.42,7.5-1.17,10.32.63s3.26,6,4.67,9.19q14.67,33.23,29.16,66.55C733.4,147.48,734.44,149,734.58,151.56Zm-57.38-31.3H706c-1.38-6.07-12.22-31.31-14.7-34.12C686.63,97.47,682,108.65,677.2,120.26Z" transform="translate(-4.84 -8.77)"/><path class="cls-1" d="M1232.2,228.68V234c0,17.88,0,35.77,0,53.66,0,1.4.79,3.42-.89,4.07a11.36,11.36,0,0,1-6.41,0c-.3-.06-.62-.74-.67-1.17a23.08,23.08,0,0,1-.11-3q0-36.85,0-73.71c0-1.16.14-2.32.21-3.38,1.39-.82,2.76-.37,4.06-.54,1.94-.25,3.05.67,4,2.3,2.65,4.83,5.41,9.6,8.13,14.39q11.13,19.61,22.27,39.21c.73,1.28,1.55,2.51,2.47,4,1.87-1.06,2.39-2.9,3.23-4.4,9.78-17.3,19.57-34.6,29.18-52,1.51-2.74,3.26-3.83,6.3-3.54,1.78.17,2.9.49,2.71,2.56-.09,1,0,2,0,3v71.2c0,1-.06,2,0,3,.09,1.72-.72,2.43-2.4,2.34a25,25,0,0,0-3,0c-1.9.14-2.79-.64-2.67-2.59.08-1.17,0-2.34,0-3.51V228.61c-2.08.11-2.25,1.94-2.87,3-8.71,15.22-17.33,30.49-26,45.74a23.19,23.19,0,0,1-1.75,3,3.41,3.41,0,0,1-5.2.09,25.13,25.13,0,0,1-2-3.44q-12.54-22-25.08-43.95C1234.84,231.75,1234.35,230.14,1232.2,228.68Z" transform="translate(-4.84 -8.77)"/><path class="cls-2" d="M1050.82,107.9c0,3.15-.08,6.47,0,9.79.06,2.08-1,2.54-2.78,2.51-3,0-6,0-9,0-7.35,0-14.69,0-22,0-4.49,0-4.51,0-4.52,4.71,0,7.52,0,15,0,22.55,0,4.06-.07,4.19-4.15,4.08-3.44-.09-7.83,1.52-10.07-.84-2-2.12-.57-6.39-.58-9.71q-.07-32.84,0-65.67c0-1.34,0-2.67,0-4a1.63,1.63,0,0,1,1.89-1.78l2,0q25,0,50.09,0c4,0,4,.06,4.08,4.16.14,8.72.14,8.72-8.55,8.72-10.35,0-20.71,0-31.06,0-3.55,0-3.61.08-3.64,3.53q-.07,8.78,0,17.55c0,3.71.1,3.77,4,3.79,9.68,0,19.37,0,29,0C1047.16,107.31,1048.85,107,1050.82,107.9Z" transform="translate(-4.84 -8.77)"/><path class="cls-1" d="M994.44,251c0-12.37,0-24.75,0-37.12,0-3.8.08-3.85,3.83-3.86,10,0,20-.07,30.06,0a43.39,43.39,0,0,1,18,3.9c13.74,6.42,21.25,17.31,22.73,32.36a43.31,43.31,0,0,1-1.56,17.86c-5.08,15.45-16,24.16-31.79,27.05a60.23,60.23,0,0,1-11.47.87c-8-.06-16,0-24.05,0-6.28-.06-5.71,1.09-5.73-6C994.42,274.41,994.44,262.71,994.44,251Zm8.35.06c0,10,.05,20,0,30,0,2.21.37,3.39,3,3.33,8.33-.17,16.71.36,25-.32,13.38-1.08,23.58-7.6,28.07-20.63,4.55-13.2,2.92-25.76-7.11-36.26a30.18,30.18,0,0,0-21-9.3c-8-.37-16-.23-24-.23-3.81,0-3.87.07-3.89,3.83C1002.77,231.38,1002.79,241.22,1002.79,251.07Z" transform="translate(-4.84 -8.77)"/><path class="cls-1" d="M822.22,116.76q0-14.79,0-29.58c0-4.67,0-4.7-4.52-4.71-6.17,0-12.35-.09-18.53,0-2.27,0-3.18-.54-3.28-3-.41-9.95-.5-9.95,9.37-9.95h53.09c5.23,0,5-.46,5,4.74,0,8.21,0,8.21-8.06,8.21-5,0-10,.09-15,0-2.3-.06-3.42.55-3.23,3.06.17,2.16,0,4.34,0,6.51q0,27.57,0,55.14c0,4.38-.05,4.39-4.33,4.43-2.34,0-4.68.05-7,0-3.42-.08-3.49-.11-3.5-3.73C822.2,137.47,822.22,127.12,822.22,116.76Z" transform="translate(-4.84 -8.77)"/><path class="cls-1" d="M1118.18,251.1c0-12.37,0-24.73,0-37.1,0-3.89.07-4,3.77-4q23.55,0,47.09,0c1.23,0,3-.69,3.49,1a8,8,0,0,1-.19,5.86c-.73,1.37-2.43.72-3.7.72-11.19,0-22.38,0-33.57,0-8.35,0-8.35,0-8.35,8.41,0,5.68,0,11.36,0,17,0,3.5.11,3.58,3.7,3.6,10.52,0,21,0,31.56,0,1.17,0,2.34,0,3.51,0,1.72-.07,2.24.78,2.35,2.42.32,4.51.06,4.92-4.37,4.92-11,0-22,0-33.07,0-3.58,0-3.66.08-3.69,3.54,0,7.52,0,15,0,22.56,0,4.11,0,4.16,4,4.17q18.8,0,37.57,0c1.17,0,2.35.08,3.51,0,2-.17,2.65.88,2.54,2.71a16.18,16.18,0,0,0,0,2.51c.15,2-.92,2.61-2.74,2.49-1.17-.08-2.34,0-3.51,0q-23,0-46.09,0c-3.78,0-3.85-.07-3.86-3.88C1118.16,275.83,1118.18,263.47,1118.18,251.1Z" transform="translate(-4.84 -8.77)"/><path class="cls-1" d="M745.32,110.07c0-12.2,0-24.39,0-36.59,0-3.88.07-3.9,3.81-4,2.5,0,5,0,7.51,0,3.41.07,3.47.1,3.49,3.73,0,8.69,0,17.38,0,26.07,0,11.69,0,23.39,0,35.09,0,4.12.06,4.18,4.07,4.19,11.18,0,22.37,0,33.56,0,4,0,4,.06,4.07,4.19.14,8.75.14,8.75-8.57,8.75q-22,0-44.08,0c-3.8,0-3.87-.07-3.88-3.88C745.3,135.14,745.32,122.6,745.32,110.07Z" transform="translate(-4.84 -8.77)"/><path class="cls-1" d="M728.79,291.5c-.37.26-.49.4-.62.41-7.59.68-7.59.68-10.61-6.24-1.86-4.28-3.82-8.53-5.57-12.86a3.8,3.8,0,0,0-4.11-2.72q-19.29.15-38.56,0c-2.26,0-3.26.92-4.05,2.84-2.1,5.09-4.57,10-6.48,15.19-1.19,3.21-3,4.58-6.32,4a30.28,30.28,0,0,0-3.42-.19c-.53-1.79.55-3,1.14-4.35q16.29-36.85,32.67-73.67c.59-1.33.76-3.35,2.33-3.63a22,22,0,0,1,7,0c1.65.25,1.8,2.26,2.38,3.57q10.72,24,21.34,48Q721.45,274.43,727,287C727.67,288.51,728.22,290.05,728.79,291.5ZM707.66,263c-6.52-14.76-12.31-29-19.11-43.57-6.42,15-12.79,29-18.73,43.57Z" transform="translate(-4.84 -8.77)"/><path class="cls-1" d="M951.53,291.83c-8.42.58-8.42.58-11.47-6.43-1.87-4.28-3.79-8.54-5.56-12.86a3.51,3.51,0,0,0-3.8-2.44c-12.85.08-25.7.11-38.56,0-2.47,0-3.52,1-4.38,3.12-2.08,5.1-4.54,10-6.46,15.2-1.14,3.06-2.95,4.11-6,3.72a24.31,24.31,0,0,0-3.29,0c-1-1.25-.26-2.1.12-3,11.21-25.33,22.47-50.63,33.59-76,1.16-2.64,2.72-3.32,5.37-3.17s4.53.1,5.87,3.17c11.13,25.54,22.5,51,33.79,76.46C951,290.17,951.18,290.8,951.53,291.83ZM930.22,262.9l-19-43.73L892.35,262.9Z" transform="translate(-4.84 -8.77)"/><path class="cls-1" d="M835.4,221.25c-.87,1-1.41,1.61-2,2.2-3.07,3.17-3,3.1-6.62.41-10.77-8-22.54-8.93-34.52-3.61s-18.13,15-19.08,27.86c-1.29,17.17,8.21,31.23,23.9,35.49,11.5,3.12,22.16,1.3,31.33-6.83.37-.33.75-.65,1.15-.95a1.52,1.52,0,0,1,.44-.15c7,5.51,6.37,5.27.21,9.59-13.29,9.32-27.87,9.92-42.33,3.42-14.3-6.42-21.65-18.29-22.95-33.86a43.64,43.64,0,0,1,2.57-19.7c6.65-17.07,22.78-26.81,41.74-25.66C819.24,210.07,828.1,213.37,835.4,221.25Z" transform="translate(-4.84 -8.77)"/><path class="cls-1" d="M1349.49,210.56a7.74,7.74,0,0,1,1.44-.49c7-.38,7-.37,10.53,5.66q10.47,17.67,21,35.34c.84,1.42,1.42,3,2.84,4.1,1.55-.89,2-2.56,2.86-3.94,7-11.77,14.18-23.44,20.87-35.39,2.62-4.68,5.47-7.38,11.21-5.32.11,1.72-1.29,3-2.17,4.54-8.82,15-17.64,29.92-26.59,44.8a15,15,0,0,0-2.36,8.48c.17,6.18.08,12.37,0,18.55,0,1.63.39,3.34-.49,4.88-7.75.77-7.75.77-7.75-6.66,0-2.18,0-4.35,0-6.52,0-5,.85-10.29-.45-15s-4.77-8.72-7.33-13q-10.46-17.67-21-35.33C1351.28,213.85,1350.51,212.4,1349.49,210.56Z" transform="translate(-4.84 -8.77)"/><path class="cls-2" d="M242.9,235.35c0-.38,0-.73.48-.84C243.52,235,243.22,235.16,242.9,235.35Z" transform="translate(-4.84 -8.77)"/><path class="cls-2" d="M242.46,236c.06-.29.13-.56.47-.63Z" transform="translate(-4.84 -8.77)"/><path class="cls-2" d="M243.36,234.54c0-.29.07-.51.44-.44C243.83,234.42,243.72,234.61,243.36,234.54Z" transform="translate(-4.84 -8.77)"/><path class="cls-2" d="M243.77,234.12c0-.34,0-.61.44-.44C244.23,234,244.11,234.16,243.77,234.12Z" transform="translate(-4.84 -8.77)"/></svg>