<svg id="Capa_1" data-name="Capa 1" xmlns="http://www.w3.org/2000/svg" viewBox="0 0 1565.33 354.75"><defs><style>.cls-1{fill:#2b692d;}.cls-2{fill:#666;}.cls-3{fill:#939594;}.cls-4{fill:#2d522e;}.cls-5{fill:#dadada;}</style></defs><path class="cls-1" d="M1226.78,151.12a49.74,49.74,0,0,1-16.78-2.37c-17.83-5.56-29.51-20.58-30.67-39.33a54.78,54.78,0,0,1,1.31-16.78c4.56-18.23,19.47-31,38.58-33A62.2,62.2,0,0,1,1241.43,61c19.44,5.07,32.18,20.86,33.14,41a50.89,50.89,0,0,1-2.22,18.65c-5.48,16.42-17.16,25.85-33.85,29.45A45.28,45.28,0,0,1,1226.78,151.12Zm.32-17.89c16,0,27.13-11.38,27.24-27.84.12-16.66-11-28.13-27.39-28.15s-27.58,11.44-27.54,28S1210.77,133.28,1227.1,133.23Z" transform="translate(-5.67 -7.84)"/><path class="cls-1" d="M926.91,59.28a48.19,48.19,0,0,1,21.48,4.94c14.59,7.23,22.35,19.21,24.06,35.22A50.43,50.43,0,0,1,971,119.15c-4.15,14.16-13.17,23.94-27.08,28.89a55.15,55.15,0,0,1-36.1.52c-19.83-6.34-31.51-24-30.35-45.53C878.93,76.19,897.56,59.15,926.91,59.28Zm-2,18c-16.34.07-27.28,11.43-27.2,28.27.07,16.62,11.33,27.86,27.78,27.73,16-.12,27-11.57,27-28.06C952.49,88.46,941.35,77.16,925,77.23Z" transform="translate(-5.67 -7.84)"/><path class="cls-1" d="M787.63,105.4q0-19.64,0-39.26c0-4.42,0-4.46,4.18-4.47,9.11,0,18.22-.13,27.33,0,8.65.16,17.18,1.37,25.23,4.74,15.41,6.47,23.48,18.25,24.64,34.81.58,8.2-.2,16.21-4.1,23.67-6.15,11.76-16.18,18.53-28.64,22.06a56.13,56.13,0,0,1-15.69,2.18c-9.61,0-19.22,0-28.83,0-4.07,0-4.11,0-4.12-4Q787.61,125.27,787.63,105.4Zm29.15-25.82h-5.11c-4.45,0-4.42-.43-4.41,4.22q0,12.66,0,25.33V128.5c0,1.33-.19,2.76,1.85,2.75,7.28,0,14.57.4,21.71-1.61C842.35,126.4,848.67,118.2,849,106c.31-11.94-5.85-20.76-17.16-24.38A42.45,42.45,0,0,0,816.78,79.58Z" transform="translate(-5.67 -7.84)"/><path class="cls-1" d="M1338.16,103.06l4,1.36c8.42,3,13.44,8.75,14.47,17.75,1,8.84-2,15.92-9.43,21a35,35,0,0,1-19.22,5.83c-12.58.32-25.17.11-37.75.24-2.22,0-2.81-.82-2.76-2.9.11-4.8,0-9.6,0-14.4q0-32.77,0-65.55c0-5.35-.37-4.69,4.89-4.7q14.64,0,29.3,0a51.3,51.3,0,0,1,16.17,2.17c12.75,4.24,16.34,13.32,14.21,25.26-.76,4.22-3.38,7.47-6.78,10.08A37.54,37.54,0,0,1,1338.16,103.06Zm-20.71,10.19V113c-2.48,0-5,.1-7.44,0-2.28-.11-3.29.64-3.22,3.08.14,4.63.1,9.26,0,13.89,0,2.09.69,3,2.87,2.94,5.12-.11,10.25,0,15.37-.14a14.88,14.88,0,0,0,7.16-1.73,9.27,9.27,0,0,0,5.06-9c-.17-4-2.61-6.28-6.09-7.62a14.56,14.56,0,0,0-5.29-1.19ZM1316,96.45v-.11a73.62,73.62,0,0,0,7.43,0c6-.6,9.79-4.27,9.72-9.25-.07-4.81-3.56-8.09-9.71-8.57-4.61-.35-9.25-.16-13.87-.27-1.75,0-2.82.44-2.79,2.47.06,4.46,0,8.93,0,13.39,0,1.63.56,2.44,2.28,2.4C1311.41,96.41,1313.73,96.45,1316,96.45Z" transform="translate(-5.67 -7.84)"/><path class="cls-1" d="M1034.24,112.67c7.44,12.22,14.61,24,22.2,36.5-7.76,0-14.65-.06-21.54,0-2.25,0-2.66-1.65-3.4-3-4.9-9.19-9.74-18.42-14.66-27.6-.75-1.42-1.08-3.6-2.73-3.89a28.94,28.94,0,0,0-7.89-.09c-1.51.16-1.05,1.83-1.05,2.9,0,8.28,0,16.55,0,24.83,0,1.32-.09,2.66,0,4,.17,2.06-.49,3-2.75,2.95-4.79-.13-9.6-.1-14.4,0-1.94,0-2.69-.76-2.53-2.65.08-1,0-2,0-3q0-38,0-76c0-6.71-.83-5.89,5.68-5.92,9.1,0,18.21,0,27.31,0a71,71,0,0,1,12.36,1,30.43,30.43,0,0,1,11.57,4.2c9.47,6.07,11.61,15.3,10.4,25.59-1.1,9.26-5.88,16-15.12,19C1036.76,111.76,1035.84,112.11,1034.24,112.67ZM1014.73,78.1v.14c-2.48,0-5,0-7.45,0-1.4,0-2.14.53-2.13,2,0,5.29,0,10.58,0,15.88,0,1.14.54,1.89,1.76,1.9,6.44,0,13,.61,19.26-1a9.14,9.14,0,0,0,5.62-13.46c-1.75-3.16-4.79-4.52-8.17-4.94C1020.7,78.24,1017.7,78.26,1014.73,78.1Z" transform="translate(-5.67 -7.84)"/><path class="cls-1" d="M1174.29,149.18c-7.63,0-14.26-.12-20.87.06-2.33.06-3.14-1.19-4-2.88q-7.62-14.52-15.35-29c-.66-1.23-1-3-2.91-3-2.46,0-5-.49-7.37.32-1.29.44-.85,2-.85,3.09,0,8.62,0,17.24,0,25.85,0,6.38.66,5.42-5.58,5.5-3,0-6,0-9,0-5.39,0-4.87.61-4.88-4.68,0-10.44,0-20.88,0-31.32q0-23.85,0-47.72c0-3.72.06-3.77,3.81-3.78,10.77,0,21.54-.06,32.31,0a46.11,46.11,0,0,1,15.12,2.54c9.07,3.23,14.47,9.46,15.88,19.14a30.63,30.63,0,0,1-1.14,14.21,20.7,20.7,0,0,1-13.36,13.7l-4,1.41Zm-51.41-61.61c0,2.65,0,5.3,0,8,0,1.54.44,2.55,2.22,2.55,6,0,12,.34,17.84-.75,5.43-1,7.91-4.38,7.63-9.86-.26-4.88-3.38-8.09-9-8.85-5.43-.74-10.91-.36-16.38-.42-1.71,0-2.33.79-2.29,2.43C1122.92,82.94,1122.88,85.26,1122.88,87.57Z" transform="translate(-5.67 -7.84)"/><path class="cls-1" d="M1435.79,105.07c0-13.25,0-26.51,0-39.76,0-3.55.08-3.63,3.49-3.63,17.73,0,35.47,0,53.2-.08,2.73,0,3.4,1,3.3,3.45-.14,3.64,0,7.29,0,10.93s-.08,3.57-3.51,3.59c-10.44,0-20.88,0-31.32,0-1.16,0-2.32,0-3.48,0-1.48,0-2.07.66-2.07,2.1,0,3.48.12,7,0,10.44-.12,2.5.59,3.45,3.3,3.41,9.6-.16,19.22-.11,28.83,0,7,0,6-1,6.08,6,0,3-.14,6,.06,9,.16,2.52-.92,3-3.19,3-9.78-.09-19.56,0-29.33,0-1.16,0-2.32,0-3.48,0-1.38,0-2.21.45-2.21,2,0,4.64,0,9.28,0,13.92,0,2,1.19,2,2.61,2,5.14,0,10.28,0,15.41,0,7.13,0,14.26.08,21.38,0,2.47,0,3.63.55,3.48,3.29-.21,3.8-.15,7.63,0,11.43.08,2.21-.41,3.3-3,3.28q-28.34-.12-56.67,0c-2.76,0-2.82-1.36-2.81-3.39C1435.81,132.25,1435.79,118.66,1435.79,105.07Z" transform="translate(-5.67 -7.84)"/><path class="cls-1" d="M550.11,149.18c-7,0-13.27-.09-19.55,0-2.1,0-2.88-1-3.54-2.67-1.65-4.15-3.51-8.22-5-12.41-.85-2.35-2.08-3.33-4.67-3.29q-13.91.21-27.8,0c-2.62,0-3.8,1-4.62,3.35-1.4,4.06-3.24,8-4.73,12-.77,2.1-1.8,3.13-4.27,3-5.92-.2-11.85-.06-17.75-.06-.26-2.14.82-3.53,1.46-5,11.34-26.06,22.82-52.07,34-78.2,1.51-3.51,3.3-4.86,6.95-4.36a22,22,0,0,0,5.95,0c3.84-.54,5.8.89,7.35,4.57,6.52,15.54,13.41,30.93,20.18,46.37q7,15.9,14,31.78C548.6,145.67,549.18,147,550.11,149.18Zm-57.6-35h21.32c-3.52-8.79-6.88-17.2-10.24-25.62l-1,.07Z" transform="translate(-5.67 -7.84)"/><path class="cls-1" d="M778.81,149.18c-7.09,0-13.37-.07-19.65,0a3.09,3.09,0,0,1-3.28-2.31c-1.78-4.45-3.69-8.85-5.4-13.32a3.73,3.73,0,0,0-4.07-2.72c-9.6.11-19.2.09-28.79,0a3.4,3.4,0,0,0-3.7,2.5c-1.68,4.48-3.49,8.92-5.29,13.36-.48,1.19-.85,2.46-2.65,2.44-6.39-.07-12.78,0-19.17,0-.14-2.21.9-3.6,1.55-5.08C699.7,118,711.15,92,722.41,65.9c1.35-3.15,2.88-4.75,6.48-4.31a41.66,41.66,0,0,0,8.43,0c2.38-.18,3.51.79,4.41,2.9,4,9.42,8.19,18.78,12.31,28.16q11.26,25.65,22.54,51.29C777.23,145.45,777.86,147,778.81,149.18Zm-36.27-35L732.31,88.55h-1l-10.1,25.65Z" transform="translate(-5.67 -7.84)"/><path class="cls-1" d="M402.25,125.38c5,5.33,11,8.31,18.49,7.81a15.77,15.77,0,0,0,8.38-2.74c4.64-3.35,4.73-9.09.21-12.63a22.82,22.82,0,0,0-6.58-3.43c-3.12-1.09-6.3-2-9.42-3.11a81,81,0,0,1-7.88-3c-15.14-7-19.05-24.79-8.37-37.69A28.35,28.35,0,0,1,410,61.76a46.78,46.78,0,0,1,32.56.74,32.73,32.73,0,0,1,7.31,4.17c1.45,1,2,2,.49,3.54-3.87,4.06-7.61,8.24-11.55,12.54a20.94,20.94,0,0,0-17.19-5.34,14.61,14.61,0,0,0-6.5,2.28c-4.95,3.26-5,9.39-.13,12.8a22.61,22.61,0,0,0,6.26,3c3.14,1,6.31,2,9.47,3,1.73.55,3.46,1.1,5.16,1.76,9,3.48,15.32,9.25,16.13,19.42.83,10.48-2.52,19.25-11.35,25.47A33.08,33.08,0,0,1,426,150.56c-12.23,1.71-23.77.1-34-7.43-3.8-2.79-3.8-2.82-.75-6.17,3.35-3.67,6.73-7.31,10.1-11A5.43,5.43,0,0,1,402.25,125.38Z" transform="translate(-5.67 -7.84)"/><path class="cls-1" d="M1520.72,125.12c5.19,5.57,11.09,8.47,18.38,8.09a16.2,16.2,0,0,0,8.43-2.59c4.92-3.33,5-9.32.3-12.92a23.33,23.33,0,0,0-6.61-3.37c-3.12-1.07-6.29-2-9.42-3.09-2.5-.86-5-1.7-7.41-2.8-15.92-7.29-19.55-26.27-7.53-39.06a29.24,29.24,0,0,1,12.49-7.84,46.83,46.83,0,0,1,31.15.67,26.73,26.73,0,0,1,10,6.34c-4.07,4.41-8.09,8.75-12.08,13.11-1.2,1.32-2,.33-2.89-.38-4.73-3.75-10.18-4.52-16-3.76a12.82,12.82,0,0,0-6.76,2.88A7.32,7.32,0,0,0,1533,92a21.18,21.18,0,0,0,6.63,3.32c3.14,1,6.31,2,9.46,3,1.89.6,3.8,1.16,5.63,1.9,18.72,7.48,22,31.23,6.06,43.75a33.22,33.22,0,0,1-16.38,6.61c-12.6,1.71-24.43-.1-34.75-8.19-2.73-2.14-2.73-2.2-.33-4.85C1513,133.51,1516.7,129.5,1520.72,125.12Z" transform="translate(-5.67 -7.84)"/><path class="cls-1" d="M649.69,118.15c1.37-1.57,1.76-3.54,2.46-5.35,6.06-15.56,12-31.16,18.11-46.7,2-5,.87-4.4,6.24-4.43,5.12,0,10.25,0,15.38,0,.77,1.53-.13,2.62-.6,3.75C680.18,92.13,669,118.83,658,145.58c-1.11,2.7-2.42,4-5.43,3.65-3.93-.43-8.75,1.48-11.61-.77-2.61-2.05-3.21-6.68-4.64-10.2q-14.22-35.17-28.4-70.37c-.74-1.82-1.41-3.67-2.39-6.22,7.13,0,13.8,0,20.47,0,2.08,0,2.26,1.6,2.77,2.94q4.71,12.25,9.39,24.54c3.12,8.19,6.18,16.4,9.33,24.57C648.1,115.22,648.38,116.92,649.69,118.15Z" transform="translate(-5.67 -7.84)"/><path class="cls-2" d="M873.72,249.34c1.27-1.74,1.12-3.76,1.28-5.66s1.09-2.6,2.89-2.58c8.09.09,7.53-1,6.37,7-2.48,16.86-4.84,33.74-7.22,50.62a41.24,41.24,0,0,1-2.36,9.11c-4.28,11-12.12,17.95-23.77,20.36a46.7,46.7,0,0,1-24-1.1,28.72,28.72,0,0,1-11.28-7c-1.31-1.29-1.58-2.26-.12-3.68,2-1.95,3.82-4.12,5.39-5.83a3.79,3.79,0,0,1,2.73,1.49c7.77,8.39,17.37,9.71,27.81,6.83A20,20,0,0,0,864.7,307a42.56,42.56,0,0,0,3.41-15.89c-1.61-.26-2.05,1.07-2.83,1.76a29.73,29.73,0,0,1-33.79,4c-9.4-5.09-13.86-15.15-12.06-27.18,2.64-17.63,16.41-29.76,34.13-30.07C862.42,239.46,867.4,241.84,873.72,249.34Zm-25.67,42c14.32-.08,24.78-13,23.52-26.95-.89-9.85-7.84-15.69-17.76-15.73-12.64-.06-23.35,10.55-23.95,23.73C829.36,283.44,837,291.37,848.05,291.3Z" transform="translate(-5.67 -7.84)"/><path class="cls-1" d="M559.76,105.34q0-19.87,0-39.75c0-3.84.06-3.88,3.7-3.92q6-.06,11.92,0c3.89,0,3.92.07,3.94,4.22,0,7.28,0,14.57,0,21.86,0,13.24,0,26.49,0,39.74,0,3.7.06,3.75,3.81,3.76,9.43,0,18.87,0,28.31,0,3.81,0,3.85.06,3.89,3.74s-.17,7.3.06,10.93c.18,2.76-1,3.34-3.45,3.28-5.3-.13-10.6,0-15.9,0-10.93,0-21.86,0-32.79,0-3.43,0-3.5-.08-3.5-3.59C559.74,132.16,559.76,118.75,559.76,105.34Z" transform="translate(-5.67 -7.84)"/><path class="cls-1" d="M1369.17,105.34c0-13.25,0-26.5,0-39.74,0-3.85.06-3.89,3.69-3.93q6-.06,11.92,0c3.89,0,3.93.07,3.94,4.22,0,7.28,0,14.57,0,21.85,0,13.25,0,26.5,0,39.75,0,3.7.06,3.75,3.81,3.76,9.43,0,18.87,0,28.31,0,3.82,0,3.85.06,3.89,3.74s-.17,7.3.06,10.93c.18,2.76-1,3.34-3.45,3.28-5.29-.13-10.59,0-15.89,0-10.93,0-21.86,0-32.79,0-3.44,0-3.5-.08-3.51-3.58C1369.15,132.16,1369.17,118.75,1369.17,105.34Z" transform="translate(-5.67 -7.84)"/><path class="cls-2" d="M457,299.32c-8.28,0-16.57,0-24.85,0-4,0-4-.09-3.48-3.83q3.71-26.07,7.46-52.11c1.34-9.34,2.74-18.67,3.91-28,.33-2.58,1.11-3.64,3.92-3.62,16.24.13,32.48,0,48.72.08,3.5,0,3.53.14,3,3.75-.87,5.88-.87,5.88-7,5.88H455.43c-5.52,0-5.53,0-6.32,5.31-.86,5.73-1.72,11.46-2.53,17.2-.72,5.09-.69,5.11,4.73,5.12,10.44,0,20.88,0,31.32,0,1.16,0,2.32,0,3.48.07a1.51,1.51,0,0,1,1.61,1.94c-.24,1.63-.59,3.27-.67,4.91-.14,2.7-1.94,2.59-3.84,2.58q-15.91,0-31.82,0c-7,0-7,0-7.92,7.06-.88,6.56-1.89,13.1-2.83,19.66-.62,4.34-.49,4.53,3.84,4.54,12.43,0,24.86,0,37.28,0,1.16,0,2.33,0,3.48.05.48,0,1.25.1,1.38.39,1.18,2.62-.21,5.15-.48,7.73-.17,1.65-1.67,1.3-2.75,1.31C474.61,299.33,465.83,299.32,457,299.32Z" transform="translate(-5.67 -7.84)"/><path class="cls-2" d="M1390.65,273.12c-6.79,0-13.58,0-20.37,0-3.18,0-3.37.33-3.15,3.43a15.91,15.91,0,0,0,15,15.09,23.89,23.89,0,0,0,18.32-6.11c2.94-2.66,2.46-2.82,5.93.2.5.44,1,.93,1.49,1.32,1.61,1.19,1.43,2.26.07,3.59a33.33,33.33,0,0,1-10.1,7.11,36.64,36.64,0,0,1-19.41,2.85c-13.55-1.74-21.81-10.75-22-24.41-.26-16.75,10.37-32.87,29.12-36.18a31.33,31.33,0,0,1,9.9-.19c11.73,1.63,19,9.58,19.49,21.47.12,2.8-.13,5.62-.2,8.43-.07,2.44-1.2,3.46-3.75,3.41C1404.23,273,1397.44,273.12,1390.65,273.12Zm-22-8h14.7c6.1,0,12.2,0,18.31,0,3.16,0,3.41-.33,3.21-3.44-.34-5.36-2.62-9.61-7.78-11.63C1385.49,245.47,1371.1,252.13,1368.63,265.1Z" transform="translate(-5.67 -7.84)"/><path class="cls-2" d="M796.88,283.19c1.49,1.3,2.88,2.46,4.22,3.68.6.55,1.11,1.2,1.77,1.92a28,28,0,0,1-10.8,8.62,36,36,0,0,1-20.32,3.19c-13.32-1.75-21.48-10.58-21.85-24.05-.44-16.32,9.75-33.36,29.77-36.63a30.61,30.61,0,0,1,9.41,0c11.72,1.73,18.81,9.69,19.36,21.61.54,11.64.54,11.64-11.1,11.64-10.93,0-21.86,0-32.8,0-4.19,0-4.49.43-3.84,4.59,1.31,8.39,7.56,13.85,16.07,14a24.13,24.13,0,0,0,16.55-5.63C794.45,285.16,795.6,284.24,796.88,283.19ZM762,265.1H774.2c7.09,0,14.19-.05,21.28,0,2.1,0,2.88-.76,2.88-2.91a12.92,12.92,0,0,0-8.68-12.54C778,245.88,764.68,252.4,762,265.1Z" transform="translate(-5.67 -7.84)"/><path class="cls-2" d="M1530.45,265.45c.1,22.23-20,39.57-43.58,34.55-13.9-3-21.63-15.64-19.07-30.69a35.65,35.65,0,0,1,42.55-29C1523.15,243.1,1530.52,252.3,1530.45,265.45ZM1496,291.73a21.37,21.37,0,0,0,11.39-2.91c8.91-5.41,13-13.58,12.33-23.76-.73-11.55-10-18.26-21.44-16.12a24.76,24.76,0,0,0-20.16,25.71C1478.54,285.11,1485.5,291.77,1496,291.73Z" transform="translate(-5.67 -7.84)"/><path class="cls-2" d="M679.09,292.36c-2,.49-2.78,1.83-3.89,2.72-7.14,5.75-15.21,7-23.88,4.84-5.59-1.42-10.24-4.43-11.55-10.42a17.69,17.69,0,0,1,5.35-17.23c5.1-4.92,11.6-6.83,18.42-7.84a110.65,110.65,0,0,1,15.86-1c3.61,0,3.68-.14,3.86-3.46.34-6-2.09-9.36-8-10.76-7-1.65-13.41.19-19.6,3.41-1.21.63-2.3,2.61-3.8,1.4a24.84,24.84,0,0,1-4.13-4.91c-.41-.57.17-1.23.73-1.63a46.3,46.3,0,0,1,4.07-2.83,38.28,38.28,0,0,1,27.84-4.11c7.75,1.74,11.89,6.63,12.54,14.6.37,4.49-.34,8.91-.88,13.35-1.15,9.52-3.3,18.93-3.37,28.58,0,1.76-.92,2.29-2.5,2.23s-3-.07-4.47,0c-1.85.09-2.79-.58-2.64-2.56C679.17,295.38,679.09,294,679.09,292.36Zm2.53-20.76c-6.66-.15-12.94-.52-19.15.82-3.26.7-6.44,1.64-9,4a10.18,10.18,0,0,0-2.95,10.9c1.08,3.63,4.37,4.69,7.81,5.16,7.24,1,13.49-.89,18.26-6.6C679.93,281.92,681.34,277.21,681.62,271.6Z" transform="translate(-5.67 -7.84)"/><path class="cls-2" d="M1170.89,292c-1.34.1-1.9,1.26-2.72,2-7.39,6.73-16,8.32-25.44,5.85-5.38-1.41-9.93-4.35-11.18-10.15a17.83,17.83,0,0,1,5.53-17.64c5.05-4.69,11.37-6.59,18-7.58a87,87,0,0,1,16.36-.93c2.58.11,3.52-.91,3.68-3.37.38-5.48-2.13-9.29-7.48-10.74-7.14-1.95-13.72-.11-20.09,3.15-1.24.63-2.4,2.57-3.82,1.54a16.35,16.35,0,0,1-4.13-4.87c-.78-1.3.82-2,1.68-2.6a37,37,0,0,1,19.87-7,33.62,33.62,0,0,1,13.24,1.54c5.53,1.9,8.62,5.76,9.87,11.41,1.11,5,.27,9.91-.33,14.82-1.21,9.85-3.27,19.6-3.65,29.54-.06,1.69-.69,2.22-2.35,2.37-6.91.59-7.09.47-6.82-6.49A3.17,3.17,0,0,0,1170.89,292Zm2.14-20.48c-3.33,0-6.3,0-9.26,0a34.71,34.71,0,0,0-4.45.15c-4.42.59-8.89,1.13-12.73,3.69a10.78,10.78,0,0,0-4.67,10.75c.74,3.72,3.26,5.62,8.35,6.43C1164.25,294.73,1173.65,283.05,1173,271.48Z" transform="translate(-5.67 -7.84)"/><path class="cls-2" d="M933.28,292c-1.19,0-1.7,1-2.39,1.63-6.64,6.27-14.45,8.38-23.36,6.74-6.22-1.14-11.69-3.67-13.47-10.18-1.88-6.87.09-13.17,5.35-18.11,5-4.71,11.36-6.61,18-7.6a107.84,107.84,0,0,1,15.86-1c3.78,0,4.18-.49,4.21-4.27,0-5.09-2.42-8.4-7.45-9.78-7.15-1.95-13.73-.12-20.1,3.13-1.25.64-2.42,2.57-3.82,1.57a16.63,16.63,0,0,1-4.15-4.85c-.8-1.31.79-2,1.66-2.61a37,37,0,0,1,19.86-7,33.44,33.44,0,0,1,13.24,1.53,14.05,14.05,0,0,1,9.85,11.41A32,32,0,0,1,947,262c-1.23,11.68-3.82,23.2-4.3,35-.07,1.65-.61,2.43-2.33,2.36s-3.32-.07-5,0c-1.82.07-2.25-.93-2.21-2.49S933.82,293.61,933.28,292Zm-5.53-20.49v.06c-1.65,0-3.32-.13-5,0-4.78.45-9.57,1-13.74,3.69a10.65,10.65,0,0,0-4.71,11.16c1,4.29,4.36,5.47,8.13,6.06,11.26,1.76,20.74-5.24,22.87-16.88.7-3.83.5-4.06-3.63-4.12C930.4,271.46,929.08,271.48,927.75,271.48Z" transform="translate(-5.67 -7.84)"/><path class="cls-2" d="M1214.08,248.81c4.12-4.12,8.69-7.22,14.37-8.52a27.39,27.39,0,0,1,9.87-.45c10.62,1.46,16.3,9.23,15.13,20.71-.49,4.77-1.21,9.53-1.86,14.28-.94,6.89-1.92,13.77-2.88,20.66-.53,3.75-.52,3.76-4.23,3.82-1.8,0-3.61,0-6.09,0,.35-2.86.64-5.42,1-8q1.83-13.53,3.68-27.06c.09-.66.17-1.32.22-2,.7-10.31-4.84-15.21-15-13.4a18.07,18.07,0,0,0-13,9,33.92,33.92,0,0,0-4.27,12.62c-1.23,8.52-2.55,17-3.62,25.57-.31,2.51-1.26,3.49-3.73,3.22-2-.22-4,.28-6.42-.52.74-5.6,1.51-11.25,2.24-16.91,1.61-12.31,4-24.52,4.78-36.93.24-3.77.35-3.78,4.15-3.87,1.16,0,2.32,0,3.48,0,1.44,0,2.14.68,2,2.15-.11,1-.2,2-.32,3a2.84,2.84,0,0,0,.53,2.57c-.12,0,0-.22-.07-.27-.28-.26-.55-.22-.6.09s.13.37.2.56Z" transform="translate(-5.67 -7.84)"/><path class="cls-2" d="M1063.73,298.71c.23-6.72,1.65-13.34,2.52-20,1.46-11.32,3.38-22.57,4.44-33.94.33-3.54.35-3.55,3.7-3.65.83,0,1.66,0,2.48,0,2.27-.19,3.48.52,3.07,3.07a43.77,43.77,0,0,0-.25,4.5c1.73.07,2.2-1.4,3.12-2.18,7.19-6.08,15.31-8.34,24.51-6,7.48,1.9,11.73,7.17,12.28,14.93a60.89,60.89,0,0,1-1,13.34c-1.33,9-2.65,18-3.75,27-.32,2.61-1.1,3.64-3.89,3.63-6.39,0-6.39.13-5.51-6.29q1.93-14,3.89-28a26.43,26.43,0,0,0,.11-7.43c-.78-5.3-3.82-8.43-9.13-8.9-7.43-.66-13.69,1.6-18.06,8-3.24,4.8-4.56,10.23-5.36,15.83-1.1,7.7-2.22,15.39-3.13,23.11-.3,2.62-1.15,4-4,3.59C1067.89,299.07,1065.87,299.75,1063.73,298.71Z" transform="translate(-5.67 -7.84)"/><path class="cls-2" d="M503.28,284.19c.85.92,1.5,1.65,2.18,2.35a17.36,17.36,0,0,0,20.47,3.32,11,11,0,0,0,3.8-3.13c3-4.09,2-8.49-2.5-10.79-2.53-1.31-5.35-1.67-8.05-2.44s-5.81-1.39-8.57-2.47c-7.66-3-10.35-8.81-8-16.77a17.3,17.3,0,0,1,7.74-10,28.29,28.29,0,0,1,23.79-3.53c4.83,1.39,8.55,4.22,10.32,9.15-1.16,1.63-2.94,2.25-4.46,3.2-3.47,2.17-3.5,2.12-6.56-.93-4.88-4.88-14.63-4.68-19.39.4-3.2,3.41-2.7,7.08,1.34,9.41,3.36,1.93,7.16,2.53,10.87,3.33a34.57,34.57,0,0,1,8.91,3c4.68,2.45,7,6.21,7,11.62-.12,8.08-3.7,14-10.87,17.54-8.39,4.17-17.17,4.51-26.07,1.77a17.34,17.34,0,0,1-9.15-7.27c-1-1.42-.76-2.33.65-3.24C498.85,287.27,501,285.75,503.28,284.19Z" transform="translate(-5.67 -7.84)"/><path class="cls-2" d="M1005.69,249.56c-3.2-.59-6.51-.2-9.78-.29-1.64-.05-2.57-.56-2.06-2.39a4.1,4.1,0,0,0,.1-.48c.53-5.28.53-5.28,5.88-5.3,7.49,0,7.42,0,8.58-7.51a87.08,87.08,0,0,1,2.71-13.62c4.14-12.72,14.91-17.07,26.62-15.18,2.31.37,3.18,1.42,2.27,3.71a20.56,20.56,0,0,0-1,3.33c-.42,2.1-1.51,2.7-3.55,2a10.76,10.76,0,0,0-3-.32c-6.85-.28-10.68,2.37-12.19,9.06-1.21,5.32-1.82,10.77-2.76,16.14-.33,1.85.56,2.37,2.16,2.38,3,0,6,.06,8.94,0,1.94,0,2.75.74,2.4,2.69-.17,1-.25,2-.37,2.95a2.52,2.52,0,0,1-3,2.55c-2.65-.09-5.3-.06-8,0-3.63.06-3.73.07-4.28,3.81-1.17,8-2.22,16.06-3.34,24.09-.89,6.39-1.92,12.77-2.66,19.17-.27,2.31-1.13,3-3.42,3-6.76.14-6.81.25-5.92-6.37,1.82-13.44,3.7-26.88,5.56-40.32A5.47,5.47,0,0,0,1005.69,249.56Z" transform="translate(-5.67 -7.84)"/><path class="cls-2" d="M1310.89,285.05a8,8,0,0,0,1.08,1.72c4.79,5.14,4.82,5.55-1.4,9.22a33.15,33.15,0,0,1-27.25,3.46c-9.37-2.77-15-9.3-16.36-18.73-3.48-24.29,15.33-42.56,37-41.06,7.69.53,13.63,3.38,18.48,9.23a62,62,0,0,1-8.52,6.56c-5.73-7.06-13.08-8.33-21.13-5.59-8.64,3-13.12,9.72-15,18.35A23.78,23.78,0,0,0,1278,280c3.12,10.6,14.91,15,25.54,9.53,1.17-.6,2.23-1.41,3.35-2.11S1308.65,285.42,1310.89,285.05Z" transform="translate(-5.67 -7.84)"/><path class="cls-2" d="M578.46,225.4c-.54,3.64-1.13,7.37-1.65,11.12-.61,4.37-.48,4.46,3.81,4.59,4.1.12,8.23-.35,12.2.29.17.35.33.51.31.65-1.14,8.75.19,7-7.54,7.21-.66,0-1.33,0-2,0-8.71,0-8.68,0-9.85,8.81-.87,6.55-1.86,13.1-2.71,19.66a52.55,52.55,0,0,0-.53,7.41c0,4.48,1.84,6.27,6.35,6.52,1.63.09,3.29-.26,4.94-.29,1.46,0,2.71-1.25,4.21-.74.14.18.33.32.33.45-.12,8.63-.3,8.3-7.82,9.46a26.57,26.57,0,0,1-9.86-.24c-4.9-1.07-7.4-3.74-8.25-8.68-.74-4.33.11-8.59.65-12.84,1-8,2.29-16,3.45-24.06.12-.82.11-1.66.26-2.47.38-2.07-.27-3.1-2.54-3-2.48.11-5,0-7.45,0-1.46,0-2.13-.7-2-2.15.1-1,.26-2,.34-3,.18-2.16,1.11-3.26,3.49-3.07s4.63,0,7,0c2,.07,3-.71,3.18-2.81a75.52,75.52,0,0,1,1.16-8.35c1.22-6.19.09-5.15,6-5.28,1.16,0,2.32.05,3.47.14C577.65,224.83,577.92,225.1,578.46,225.4Z" transform="translate(-5.67 -7.84)"/><path class="cls-2" d="M745.3,241.42c-.81,7.84-.81,7.84-8,7.84-2.65,0-5.3,0-8,0-1.59,0-2.34.7-2.55,2.33-1.32,10.16-2.74,20.32-4.08,30.48a18.18,18.18,0,0,0-.06,4c.3,3.47,1.77,4.95,5.24,5.52s6.83-.47,10.1-1.13c.22.3.4.43.4.57.06,8.88-.47,8.4-7.68,9.51a26.57,26.57,0,0,1-9.37-.11c-5.67-1.15-8.29-3.91-9-9.68-.47-4.16.29-8.26.83-12.35,1-8,2.3-16.05,3.44-24.07.14-1,.16-2,.27-3,.19-1.54-.64-2.05-2-2.06-2.48,0-5-.07-7.45,0-1.85,0-2.87-.55-2.53-2.58.19-1.14.38-2.28.52-3.43.19-1.63,1.12-2.21,2.7-2.16,2.31.06,4.64-.1,6.95,0s3.63-.57,3.84-3.24c.3-3.61,1.14-7.18,1.58-10.79.22-1.88,1.08-2.6,2.89-2.44,2.27.2,4.61-.37,7.15.5-.6,4.15-1.25,8.19-1.74,12.26-.41,3.43-.23,3.56,3.32,3.68C736.46,241.24,740.76,240.81,745.3,241.42Z" transform="translate(-5.67 -7.84)"/><path class="cls-2" d="M1442.78,248.82a28.84,28.84,0,0,1,15.31-8.76,20.12,20.12,0,0,1,5.41-.38c.8.06,1.91.19,2.28.71,1.81,2.56-.45,5-.53,7.51,0,1.4-1.24,1.79-2.56,1.56-.33-.06-.66-.07-1-.1-12.35-1.05-18,5.67-20.81,15.59-1.79,6.21-2.11,12.7-3.11,19.06-.66,4.25-1.3,8.5-1.8,12.76-.21,1.8-.88,2.47-2.77,2.59-7.34.48-7.41.55-6.43-6.75,1.76-13.1,3.64-26.19,5.41-39.28.4-3,.63-5.92.77-8.89.12-2.46,1.14-3.46,3.7-3.38,6.29.18,6.67-.54,5.53,5.68a2.44,2.44,0,0,0,.59,2.08c-.12,0,0-.23-.06-.28-.29-.26-.56-.22-.61.09s.13.37.2.56Z" transform="translate(-5.67 -7.84)"/><path class="cls-2" d="M597.1,299.32c1-7.35,1.85-14.05,2.77-20.74,1.57-11.3,3.43-22.57,4.47-33.94.31-3.44.35-3.45,3.81-3.53,1.16,0,2.32,0,3.48,0,1.42,0,2.06.67,2,2.16-.07,1.79-.57,3.58-.09,5.45,1.56-.11,2.06-1.54,3-2.35,5.11-4.33,10.91-6.84,17.67-6.74,3.34.06,3.69.61,3.17,3.85-.13.81-.26,1.63-.45,2.44-.83,3.5-.84,3.5-4.49,3.38-10.27-.32-16.16,3.61-19.65,13.26-2.1,5.81-2.41,12-3.33,18-.79,5.23-1.53,10.47-2.11,15.73-.25,2.31-1.22,3.19-3.51,3C601.9,299.2,599.93,299.32,597.1,299.32Z" transform="translate(-5.67 -7.84)"/><path class="cls-2" d="M1332.15,299.32h-1c-4-.09-4-.09-3.43-3.83q3.39-24.33,6.77-48.64c.16-1.15.48-2.28.58-3.42.14-1.61.88-2.42,2.52-2.32a8.34,8.34,0,0,0,1,0c6.46-.27,6.57-.26,5.71,6.06q-3.24,23.85-6.65,47.66C1337,299.34,1336.92,299.33,1332.15,299.32Z" transform="translate(-5.67 -7.84)"/><path class="cls-2" d="M1034.48,299.31c1.33-9.87,2.55-19.16,3.83-28.45,1.19-8.66,2.46-17.32,3.69-26,.52-3.67.5-3.68,4.26-3.78,6.31-.17,6.21-.18,5.28,6.27-2.24,15.52-4.38,31.05-6.56,46.58-.16,1.14-.29,2.29-.47,3.43a2.05,2.05,0,0,1-2.36,1.94C1039.71,299.27,1037.28,299.31,1034.48,299.31Z" transform="translate(-5.67 -7.84)"/><path class="cls-2" d="M1050,225.71c-3.91.1-6.56-2.24-6.57-5.82a8.52,8.52,0,0,1,7.92-8.09,6.05,6.05,0,0,1,6.54,6A8,8,0,0,1,1050,225.71Z" transform="translate(-5.67 -7.84)"/><path class="cls-2" d="M1344.27,211.79a6,6,0,0,1,6.4,6.09,8,8,0,0,1-8,7.83c-3.93,0-6.41-2.26-6.37-5.94A8.37,8.37,0,0,1,1344.27,211.79Z" transform="translate(-5.67 -7.84)"/><path class="cls-3" d="M128.39,109.29c3.57,7.1,9,11.92,15,16.21a113.66,113.66,0,0,0,13.11,8,269.34,269.34,0,0,0,34.88,15c22.06,8,43.9,16.47,65.18,26.36A212.92,212.92,0,0,1,277.62,186c7.93,4.84,14.23,11.42,19.82,18.7a83,83,0,0,1,16.43,38.2,106,106,0,0,1,.69,25.42,102.51,102.51,0,0,1-5.51,26.23c-6.54,18.27-18.17,32.57-34.1,43.49a127.86,127.86,0,0,1-38.75,17.53,181,181,0,0,1-28,5.32c-7.12.79-14.27,1.13-21.42,1.5-8,.41-16.06.06-24.07-.31a213.26,213.26,0,0,1-42.43-6c-14.59-3.69-28.46-9.1-41.1-17.42-17.32-11.39-29.61-26.86-37.4-46a131.33,131.33,0,0,1-8.13-30.23c-.36-2.37-.37-2.37-2.81-2.37H5.67c.08-.95.89-1.38,1.44-1.94q13.17-13.25,26.35-26.45Q52.21,212.83,70.94,194c.44-.45.91-.88,1.33-1.34a1.06,1.06,0,0,1,1.79,0c.32.35.67.67,1,1l39.6,38.92,25,24.5a7.48,7.48,0,0,1,1.67,1.84c-.39.59-.9.41-1.33.41q-10.62.18-21.25.33c-.32,0-.63,0-1,0-1.34.08-1.55.28-1.19,1.56a55.59,55.59,0,0,0,2.88,8c5.47,12.13,14.71,20.22,27,25a86.73,86.73,0,0,0,24.35,5.3,134.07,134.07,0,0,0,16.28.34c8.45-.29,16.76-1.47,24.67-4.68a35,35,0,0,0,13.7-9.37,26.08,26.08,0,0,0,5.89-13.18c1.07-6.51-.34-12.68-2.47-18.73-3.64-10.35-9.37-19.57-15.62-28.49a291.21,291.21,0,0,0-22.89-28.23c-9-9.92-18.05-19.78-26.94-29.78s-17.65-20.55-24.74-32.15c-4.5-7.36-8.26-15-10.18-23.51A4.75,4.75,0,0,1,128.39,109.29Zm21.38,29c-.05.3-.15.49-.09.58.94,1.35,1.88,2.71,2.86,4,6.66,9,14,17.41,21.5,25.67,6.62,7.27,13.29,14.49,19.9,21.78,4.7,5.18,9.34,10.43,13.74,15.86,7.74,9.54,15.06,19.38,21,30.18,4.61,8.38,8.49,17,9.82,26.6a35.27,35.27,0,0,1-2.77,19.8c-3.38,7.46-9.12,12.69-16.23,16.54-8.89,4.83-18.57,6.91-28.5,7.46a130.75,130.75,0,0,1-29.17-1.2c-9.22-1.57-18.08-4.05-26.26-8.69a52.92,52.92,0,0,1-19.11-18.17c-4.72-7.54-7-15.91-8.95-24.46-.38-1.73-.08-2.06,1.76-2.07,4.18,0,8.35,0,12.53,0,.74,0,1.49-.07,2.62-.12-.9-.83-1.52-1.39-2.12-2-8.88-8.72-17.63-17.56-26.61-26.17-6.88-6.59-13.56-13.4-20.33-20.11-.28-.28-.55-.56-.84-.83-1.32-1.24-1.53-1.23-2.83.15-.86.92-1.65,1.9-2.53,2.79-3.55,3.59-7.12,7.14-10.68,10.71q-16.93,17-33.87,34c-.62.62-1.49,1.11-1.64,2.12a4.71,4.71,0,0,0,2.44.29c4.09.23,8.16-.47,12.26-.34,1.65.06,1.94.27,2.12,1.85.49,4.21,1.11,8.4,1.94,12.56a114.58,114.58,0,0,0,12.79,35.31A89,89,0,0,0,77.88,329c11.62,8.83,24.72,14.64,38.67,18.64a189.65,189.65,0,0,0,29.31,5.77c6.32.78,12.65,1.47,19,1.63,12.5.31,25,.6,37.5-.72,6-.64,12-1.33,18-2.42,15.43-2.83,30.17-7.58,43.8-15.48a90.92,90.92,0,0,0,24.43-20.18,79.19,79.19,0,0,0,14.21-25.37,100.55,100.55,0,0,0,5-26.3,88.07,88.07,0,0,0-1.49-23.47A78,78,0,0,0,293.9,212a74.73,74.73,0,0,0-16.78-17.76,104.76,104.76,0,0,0-14-8.36,381.12,381.12,0,0,0-35-15.82c-16.64-6.68-33.55-12.62-50.29-19a193.51,193.51,0,0,1-25.13-11.36A8.76,8.76,0,0,0,149.77,138.3Z" transform="translate(-5.67 -7.84)"/><path class="cls-4" d="M216.51,248.35l.13.46c-.1.34-.06.74-.45.95a26,26,0,0,0-9.73-7.66,290.27,290.27,0,0,0-27.52-11.18c-16.1-5.85-32.38-11.23-48.32-17.53-12.07-4.77-24.08-9.68-35.64-15.58-13.13-6.7-25.22-14.87-35.52-25.5-12-12.38-20.22-26.82-23.6-43.85a95.2,95.2,0,0,1-1.28-26.8A103.7,103.7,0,0,1,40.5,74.3C46.93,57,58,43.31,72.83,32.53c13.56-9.86,28.7-16.22,45-20,17.68-4.12,35.62-5.24,53.72-4.46a213,213,0,0,1,34,4c19.88,4.11,38.44,11.34,54.73,23.73,15.72,12,27.52,26.88,34.11,45.68a95.76,95.76,0,0,1,4.11,16c.4,2.42.39,2.42,3,2.4l21.5-.12h1.42c-.93,1.78-60.38,61.93-67.49,68.33l-68.7-67.29c2.45-.5,4.61-.21,6.75-.28s4.25,0,6.38,0l6.61,0c2.11,0,4.22,0,6.26,0,.38-1.09-.23-1.72-.55-2.4-4.63-9.71-12.21-16.22-22.07-20.25a73.11,73.11,0,0,0-19.19-4.69,95.87,95.87,0,0,0-18.16-.5c-8.84.61-17.22,2.76-24.8,7.55a31.55,31.55,0,0,0-7,5.89,23.26,23.26,0,0,0-5.64,18.39c.7,7,3.16,13.44,6.27,19.67,5.54,11.13,12.82,21.11,20.63,30.71,9.45,11.61,19.73,22.49,29.79,33.57,9,10,18,20,26.12,30.79,6.19,8.28,11.83,16.89,15.91,26.44.31.72.55,1.46.82,2.2A.47.47,0,0,0,216.51,248.35ZM307.21,107h-1.76c-3.63,0-7.25,0-10.87,0-1.62,0-1.88-.22-2.22-1.79a33.87,33.87,0,0,1-.56-3.47,85.8,85.8,0,0,0-9.86-30.49,79.5,79.5,0,0,0-12.09-17,98.24,98.24,0,0,0-14.6-13.32A115.51,115.51,0,0,0,225,24.83a157.19,157.19,0,0,0-24.49-6.57c-3.08-.55-6.16-1.16-9.26-1.45-3.82-.36-7.62-.8-11.45-1.08-5.08-.37-10.16-.77-15.24-.81-4.55,0-9.1-.31-13.66.36-2.61.38-5.31.26-8,.45-5.24.37-10.41,1.14-15.57,2a134.05,134.05,0,0,0-16.65,4,116.49,116.49,0,0,0-25,10.84A100.34,100.34,0,0,0,67.6,46a85.34,85.34,0,0,0-6,6.34,81,81,0,0,0-9.74,14.1,87.77,87.77,0,0,0-8.2,22.25,100.67,100.67,0,0,0-2.32,17.17,77.08,77.08,0,0,0,.27,12.7,117.68,117.68,0,0,0,2,12A70.06,70.06,0,0,0,49.26,146,71.72,71.72,0,0,0,54,154.15a61.68,61.68,0,0,0,7,9.14,106.43,106.43,0,0,0,7.7,7.92c2.69,2.27,5.26,4.73,8.06,6.85a157.15,157.15,0,0,0,19.43,12.41c5.8,3.17,11.84,5.86,17.91,8.44q13.44,5.7,27.1,10.86c11.75,4.44,23.66,8.41,35.46,12.71,5.16,1.88,10.29,3.86,15.43,5.78,1.62.6,3.25,1.18,4.87,1.76.36.13.77.39,1.06,0a.82.82,0,0,0-.17-1.07,35,35,0,0,1-2.31-3.26,334.7,334.7,0,0,0-22.78-27.51c-3.26-3.6-6.52-7.22-9.84-10.77-4.82-5.16-9.6-10.36-14.22-15.7-3.34-3.85-6.84-7.57-10-11.53a221.31,221.31,0,0,1-15.51-21.26c-4.72-7.55-9-15.33-11.55-23.91-1.84-6.06-2.87-12.14-1.84-18.51A30.29,30.29,0,0,1,117,81.16c5.54-6.37,12.83-10,20.61-12.75,7.24-2.53,14.85-3,22.43-3.45,1.75-.1,3.44.44,5.14.43A77.44,77.44,0,0,1,179,66.86c9.78,1.69,18.94,4.93,27,10.86a50.42,50.42,0,0,1,8.72,8.49c2.86,3.41,4.75,7.4,6.61,11.38,1.29,2.77,2.36,5.65,3.54,8.47.36.86.17,1.38-.83,1.43-.55,0-1.11,0-1.66,0-4.88,0-9.76,0-14.65,0-.58,0-1.26-.24-1.77.39.08.89.77,1.34,1.39,1.76A10.06,10.06,0,0,1,209,111c11.63,12,23.85,23.35,35.64,35.16l10.19,10.19c1.77,1.77,1.77,1.76,3.44,0,.38-.4.78-.79,1.16-1.18q23-23,45.94-45.95A7.1,7.1,0,0,0,307.21,107Z" transform="translate(-5.67 -7.84)"/><path class="cls-2" d="M216.19,249.76c.39-.21.35-.61.45-.95.75.95.84,2.14,1.44,3.67A8,8,0,0,1,216.19,249.76Z" transform="translate(-5.67 -7.84)"/><path class="cls-2" d="M216.51,248.35a.47.47,0,0,1-.29-.58A.47.47,0,0,1,216.51,248.35Z" transform="translate(-5.67 -7.84)"/><path class="cls-5" d="M149.77,138.3a8.76,8.76,0,0,1,2.93,1.33A193.51,193.51,0,0,0,177.83,151c16.74,6.43,33.65,12.37,50.29,19a381.12,381.12,0,0,1,35,15.82,104.76,104.76,0,0,1,14,8.36A74.73,74.73,0,0,1,293.9,212a78,78,0,0,1,12.37,29.1,88.07,88.07,0,0,1,1.49,23.47,100.55,100.55,0,0,1-5,26.3,79.19,79.19,0,0,1-14.21,25.37A90.92,90.92,0,0,1,264.1,336.4c-13.63,7.9-28.37,12.65-43.8,15.48-6,1.09-11.94,1.78-18,2.42-12.49,1.32-25,1-37.5.72-6.34-.16-12.67-.85-19-1.63a189.65,189.65,0,0,1-29.31-5.77c-14-4-27-9.81-38.67-18.64a89,89,0,0,1-23.36-26.59,114.58,114.58,0,0,1-12.79-35.31c-.83-4.16-1.45-8.35-1.94-12.56-.18-1.58-.47-1.79-2.12-1.85-4.1-.13-8.17.57-12.26.34a4.71,4.71,0,0,1-2.44-.29c.15-1,1-1.5,1.64-2.12q16.92-17,33.87-34c3.56-3.57,7.13-7.12,10.68-10.71.88-.89,1.67-1.87,2.53-2.79,1.3-1.38,1.51-1.39,2.83-.15.29.27.56.55.84.83,6.77,6.71,13.45,13.52,20.33,20.11,9,8.61,17.73,17.45,26.61,26.17.6.58,1.22,1.14,2.12,2-1.13.05-1.88.11-2.62.12-4.18,0-8.35,0-12.53,0-1.84,0-2.14.34-1.76,2.07,1.91,8.55,4.23,16.92,8.95,24.46a52.92,52.92,0,0,0,19.11,18.17c8.18,4.64,17,7.12,26.26,8.69a130.75,130.75,0,0,0,29.17,1.2c9.93-.55,19.61-2.63,28.5-7.46,7.11-3.85,12.85-9.08,16.23-16.54A35.27,35.27,0,0,0,238.5,263c-1.33-9.61-5.21-18.22-9.82-26.6-5.94-10.8-13.26-20.64-21-30.18-4.4-5.43-9-10.68-13.74-15.86-6.61-7.29-13.28-14.51-19.9-21.78-7.51-8.26-14.84-16.69-21.5-25.67-1-1.33-1.92-2.69-2.86-4C149.62,138.79,149.72,138.6,149.77,138.3Z" transform="translate(-5.67 -7.84)"/><path class="cls-1" d="M307.21,107a7.1,7.1,0,0,1-1.84,2.22q-23,23-45.94,45.95c-.38.39-.78.78-1.16,1.18-1.67,1.72-1.67,1.73-3.44,0l-10.19-10.19C232.85,134.34,220.63,123,209,111a10.06,10.06,0,0,0-1.65-1.32c-.62-.42-1.31-.87-1.39-1.76.51-.63,1.19-.39,1.77-.39,4.89,0,9.77,0,14.65,0,.55,0,1.11,0,1.66,0,1,0,1.19-.57.83-1.43-1.18-2.82-2.25-5.7-3.54-8.47-1.86-4-3.75-8-6.61-11.38A50.42,50.42,0,0,0,206,77.72c-8.1-5.93-17.26-9.17-27-10.86a77.44,77.44,0,0,0-13.76-1.47c-1.7,0-3.39-.53-5.14-.43-7.58.48-15.19.92-22.43,3.45-7.78,2.71-15.07,6.38-20.61,12.75a30.29,30.29,0,0,0-7.26,15.31c-1,6.37,0,12.45,1.84,18.51,2.6,8.58,6.83,16.36,11.55,23.91a221.31,221.31,0,0,0,15.51,21.26c3.19,4,6.69,7.68,10,11.53,4.62,5.34,9.4,10.54,14.22,15.7,3.32,3.55,6.58,7.17,9.84,10.77a334.7,334.7,0,0,1,22.78,27.51,35,35,0,0,0,2.31,3.26A.82.82,0,0,1,198,230c-.29.42-.7.16-1.06,0-1.62-.58-3.25-1.16-4.87-1.76-5.14-1.92-10.27-3.9-15.43-5.78-11.8-4.3-23.71-8.27-35.46-12.71q-13.66-5.16-27.1-10.86c-6.07-2.58-12.11-5.27-17.91-8.44a157.15,157.15,0,0,1-19.43-12.41c-2.8-2.12-5.37-4.58-8.06-6.85a106.43,106.43,0,0,1-7.7-7.92,61.68,61.68,0,0,1-7-9.14A71.72,71.72,0,0,1,49.26,146a70.06,70.06,0,0,1-5.63-15.45,117.68,117.68,0,0,1-2-12,77.08,77.08,0,0,1-.27-12.7,100.67,100.67,0,0,1,2.32-17.17,87.77,87.77,0,0,1,8.2-22.25,81,81,0,0,1,9.74-14.1,85.34,85.34,0,0,1,6-6.34A100.34,100.34,0,0,1,85.7,32.58a116.49,116.49,0,0,1,25-10.84,134.05,134.05,0,0,1,16.65-4c5.16-.86,10.33-1.63,15.57-2,2.66-.19,5.36-.07,8-.45,4.56-.67,9.11-.4,13.66-.36,5.08,0,10.16.44,15.24.81,3.83.28,7.63.72,11.45,1.08,3.1.29,6.18.9,9.26,1.45A157.19,157.19,0,0,1,225,24.83a115.51,115.51,0,0,1,30.23,16.1,98.24,98.24,0,0,1,14.6,13.32,79.5,79.5,0,0,1,12.09,17,85.8,85.8,0,0,1,9.86,30.49,33.87,33.87,0,0,0,.56,3.47c.34,1.57.6,1.78,2.22,1.79,3.62,0,7.24,0,10.87,0Z" transform="translate(-5.67 -7.84)"/></svg>