<svg id="Capa_1" data-name="Capa 1" xmlns="http://www.w3.org/2000/svg" viewBox="0 0 3000 1650"><defs><style>.cls-1{fill:#fff;}</style></defs><path class="cls-1" d="M395.4,213.52q47.84,40.6,47.83,123.22,0,48.57-23.91,86.61t-72.49,59.8Q298.27,504.9,228,504.89H197.53v63.79q0,29,6.52,43.49t22.83,19.93q16.31,5.43,49.65,5.43a75.64,75.64,0,0,1-4.35,25.37,67.65,67.65,0,0,1-11.6,21H49.67a60.2,60.2,0,0,1-12.33-21A75.63,75.63,0,0,1,33,637.53q24.63,0,35.15-8.33t10.51-27.91V260.64q0-20.29-10.51-28.63T33,223.67Q33,199,48.94,178q48.56,0,131.91-3.63,42-1.44,55.09-1.44Q347.56,172.94,395.4,213.52Zm-99.66,45.67q-21.39-29-71.4-29-15.94,0-26.81,2.9V445.46q6.51,1.46,18.84,1.45,60.15,0,80.45-31.89t20.3-80.45Q317.12,288.19,295.74,259.19Z"/><path class="cls-1" d="M498.31,504.89q31.89-28.26,94.23-28.26A237.9,237.9,0,0,1,637.11,481q22.83,4.35,37.33,11.59v-96.4q0-29-14.5-41.67T620.8,341.81q-23.91,0-39.14,11.6,13.77,4.35,20.66,14.86a42.07,42.07,0,0,1,6.89,23.56q0,23.21-16.67,37.69T550.5,444q-27.56,0-44.22-15.94t-16.67-41.32q0-25.37,17.4-47.84t53.27-36.24q35.88-13.76,88.79-13.77,71.76,0,108.72,29.36t37,85.89V596.22q0,34.78,33.34,42v23.19q-9.44,13-31.17,20.3A139.33,139.33,0,0,1,752.72,689q-49.31,0-69.58-34.06-16.7,14.51-40.59,24.28T588.19,689q-54.36,0-88.07-30.07t-33.7-77.2Q466.42,533.18,498.31,504.89Zm176.13,43.49a84.26,84.26,0,0,0-19.21-8.69,69.62,69.62,0,0,0-21.38-3.63q-20.29,0-33.34,12.69t-13,36.6q0,19.56,13,32.25t34.79,12.69A71.57,71.57,0,0,0,656.68,627a63.92,63.92,0,0,0,17.76-8.33Z"/><path class="cls-1" d="M906.37,643Q858.52,592.6,858.53,499.1q0-66.68,22.83-113.8t64.15-71q41.31-23.91,95.67-23.92,52.18,0,91.69,22.83t61.61,67.05q22.1,44.22,22.1,107.27,0,66-22.83,112.34t-64.14,69.95q-41.33,23.54-95.68,23.55Q954.19,693.34,906.37,643Zm171.05-30.8q12.32-29,12.32-107.28,0-65.94-6.52-101.47t-18.12-48.56q-11.61-13-29.72-13.05-25.38,0-38.05,29T984.64,479.53q0,65.22,6.53,100.38t18.48,48.2q12,13,30.08,13Q1065.1,641.16,1077.42,612.17Z"/><path class="cls-1" d="M1296.3,220.05q0-18.12-10.51-27.18T1247,183.81v-29q26.09-14.49,66-24.64T1377.48,120q17.4,0,24.64,7.25t7.25,25.37V604.92q0,22.47,9.06,31.16t30.81,8.7q0,20.29-17.4,39.14H1273.11q-16.68-18.1-16.67-39.14,21,0,30.44-9.06t9.42-30.8Z"/><path class="cls-1" d="M1514.46,504.89q31.88-28.26,94.22-28.26a237.92,237.92,0,0,1,44.58,4.35q22.83,4.35,37.32,11.59v-96.4q0-29-14.49-41.67T1637,341.81q-23.92,0-39.14,11.6,13.76,4.35,20.66,14.86a42.14,42.14,0,0,1,6.88,23.56q0,23.21-16.67,37.69t-42,14.49q-27.56,0-44.21-15.94t-16.67-41.32q0-25.37,17.39-47.84t53.28-36.24q35.88-13.76,88.79-13.77,71.74,0,108.72,29.36t37,85.89V596.22q0,34.78,33.34,42v23.19q-9.42,13-31.16,20.3a139.35,139.35,0,0,1-44.22,7.24q-49.29,0-69.58-34.06-16.68,14.51-40.59,24.28T1604.33,689q-54.36,0-88.06-30.07t-33.7-77.2Q1482.57,533.18,1514.46,504.89Zm176.12,43.49a84.37,84.37,0,0,0-19.2-8.69,69.62,69.62,0,0,0-21.38-3.63q-20.31,0-33.35,12.69t-13,36.6q0,19.56,13,32.25t34.8,12.69a71.62,71.62,0,0,0,21.38-3.27,63.71,63.71,0,0,0,17.75-8.33Z"/><path class="cls-1" d="M175.06,1417.1q-84.79-3.64-126.12-3.63Q33,1393.9,33,1367.81q24.63,0,34.79-8.34t10.15-28.63V990.19q0-20.28-10.15-28.63T33,953.22q0-26.09,15.94-45.66,40.59,0,125.4-2.18,37.66-1.44,51.46-1.44,113.77,0,160.9,35.51t47.11,86.25q0,42-21.38,70.67t-70.67,48.92q64.51,13.05,92.05,41.32t27.55,84.8q0,147.85-221.79,147.86Q212,1419.27,175.06,1417.1ZM316.4,1042.37q0-40.57-22.11-63.06t-67-22.46q-20.31,0-29.72,2.9v166.7a202.25,202.25,0,0,0,21.74,1.45Q316.4,1127.9,316.4,1042.37Zm13,236.29q0-50-25.36-74.29t-82.63-24.29l-23.92.73v183.38a297,297,0,0,0,30.44,2.17Q329.45,1366.36,329.44,1278.66Z"/><path class="cls-1" d="M787.52,1036.57q15.21,16.7,15.22,45.67,0,31.17-16.31,50.73t-43.85,19.57q-23.93,0-38.78-13.77t-14.86-32.61q0-11.6,2.18-18.12-26.1,6.51-44.22,22.46V1328q0,18.12,5.08,27.54t19.93,14.13q14.85,4.73,44.57,4.71,0,13.05-2.89,22.11a42.57,42.57,0,0,1-10.88,17H509.19q-16.68-16.67-16.67-39.14,21,0,30.08-9.06t9.06-30.8V1125q0-19.57-10.51-27.54t-37.33-8v-32.61q23.93-13.75,63.42-24.28t61.25-10.51q17.4,0,24.64,12.32t7.25,49.29q13.05-24.64,41.31-44.22t58-19.57Q772.29,1019.9,787.52,1036.57Z"/><path class="cls-1" d="M847,1234.45q31.88-28.28,94.22-28.27a237.92,237.92,0,0,1,44.58,4.35q22.83,4.35,37.32,11.59v-96.4q0-29-14.49-41.67t-39.14-12.69q-23.93,0-39.14,11.6,13.76,4.35,20.66,14.86a42.14,42.14,0,0,1,6.88,23.56q0,23.2-16.67,37.69t-42,14.49q-27.55,0-44.21-15.94t-16.67-41.32q0-25.36,17.39-47.83t53.28-36.24q35.88-13.77,88.79-13.78,71.74,0,108.72,29.36t37,85.89v192.07q0,34.79,33.34,42V1391q-9.42,13.05-31.16,20.3a139.39,139.39,0,0,1-44.22,7.24q-49.29,0-69.58-34.06-16.68,14.51-40.59,24.28t-54.36,9.78q-54.36,0-88.06-30.07t-33.7-77.2Q815.06,1262.73,847,1234.45Zm176.12,43.48a84.37,84.37,0,0,0-19.2-8.69,69.63,69.63,0,0,0-21.39-3.63q-20.29,0-33.34,12.69t-13,36.6q0,19.57,13,32.25t34.79,12.69a71.64,71.64,0,0,0,21.39-3.27,63.57,63.57,0,0,0,17.75-8.33Z"/><path class="cls-1" d="M1831.22,1372.88v21q-27.56,23.92-89.15,23.92-30.43,0-47.84-8.33t-17.39-29.36V1138.77q0-23.19-12.69-35.88t-33.7-12.68q-26.1,0-44.94,17.39a60.46,60.46,0,0,1,.73,10.88v216.71q0,21,8.69,30.08t27.55,9.06q0,21.75-17.4,39.14H1450.7q-16.68-18.1-16.67-39.14,18.1,0,26.09-9.06t8-30.08V1138.77q0-22.45-13-35.51t-32.62-13a71.15,71.15,0,0,0-52.91,25.37v219.61q0,21,7.61,30.08t25.73,9.06q0,22.49-17.39,39.14H1228.18q-17.39-17.38-17.39-39.14,21.74,0,31.17-9.06t9.42-30.08V1122.83q0-19.57-10.87-27.91t-37.69-8.33v-31.9q23.17-13.76,65.59-24.64t64.15-10.87q15.93,0,25,9.78t12,36.61q18.84-21.75,47.84-34.07t64.51-12.32q72.47,0,94.22,48.56,18.84-23.19,48.92-35.88t67-12.68q51.45,0,77.55,25.37t26.1,73.93v216.71Q1795.71,1366.36,1831.22,1372.88Z"/><path class="cls-1" d="M1905.87,949.6q0-18.11-10.51-27.18t-38.78-9.06v-29q26.1-14.49,66-24.65t64.51-10.14q17.39,0,24.64,7.24t7.25,25.37v452.28q0,22.47,9.06,31.16t30.8,8.7q0,20.31-17.39,39.14H1882.67q-16.68-18.1-16.67-39.14,21,0,30.45-9.06t9.42-30.8Z"/><path class="cls-1" d="M2378.44,1310.55q5.79,5.81,10.14,17.4t4.35,20.29q0,13-17.39,30.08t-48.2,29.35q-30.83,12.32-69.22,12.33-53.65,0-93.86-23.2t-62-67.41q-21.75-44.19-21.75-104.37,0-61.59,23.56-108t64.87-71.4q41.31-25,93.5-25,65.94,0,105.09,38.41t39.14,106.55q0,31.9-10.14,50.37t-36.24,18.49H2203.76q4.35,105.09,89.87,105.09Q2339.3,1339.54,2378.44,1310.55Zm-158-214.9q-15.22,25-16.67,83.71H2277q11.6,0,15.22-8t3.63-24.65q0-42.75-10.15-59.43t-27.54-16.67Q2235.65,1070.64,2220.43,1095.65Z"/><path class="cls-1" d="M2593,1093.83v204.4q0,21.74,8.69,30.08t24.65,8.33q13.75,0,29-7.25t23.92-18.12q7.23,5.82,10.51,17.4a78.58,78.58,0,0,1,3.26,21q0,16.68-11.6,32.61t-34.79,26.1q-23.21,10.14-55.81,10.14-50.75,0-81.54-29t-30.8-96.4V1093.83H2432.8v-44.21q18.84-2.88,36.6-24.28t30.44-53.64a253.58,253.58,0,0,0,16.31-64.14,146.42,146.42,0,0,1,23.92-2.18q26.08,0,38.77,14.86t12.69,33v76.11h84.07a274.8,274.8,0,0,1-2.17,37.32,68.58,68.58,0,0,1-9.42,27.18Z"/><path class="cls-1" d="M2866.23,1093.83v204.4q0,21.74,8.69,30.08t24.65,8.33q13.75,0,29-7.25t23.92-18.12q7.23,5.82,10.51,17.4a78.58,78.58,0,0,1,3.26,21q0,16.68-11.6,32.61t-34.79,26.1q-23.21,10.14-55.81,10.14-50.75,0-81.54-29t-30.8-96.4V1093.83h-45.66v-44.21q18.84-2.88,36.6-24.28t30.44-53.64a253.58,253.58,0,0,0,16.31-64.14,146.42,146.42,0,0,1,23.92-2.18q26.08,0,38.77,14.86t12.69,33v76.11h84.07a274.8,274.8,0,0,1-2.17,37.32,68.58,68.58,0,0,1-9.42,27.18Z"/><path class="cls-1" d="M2266.29,642.56,2061.85,519.84V487l204.44-121.63v39.36l-164,100,164,97.57Z"/><path class="cls-1" d="M2602.2,308.29,2434.66,708.7h-40.18l166.73-400.41Z"/><path class="cls-1" d="M2948.78,519.84,2744.33,642.56V602.38l164-97.57-164-100V365.41L2948.78,487Z"/></svg>