<svg id="Capa_1" data-name="Capa 1" xmlns="http://www.w3.org/2000/svg" viewBox="0 0 1000 1000"><defs><style>.cls-1{opacity:0.85;}.cls-2{fill:#f8af3c;}.cls-3{fill:#2baae2;}.cls-4{fill:#e62379;}.cls-5{fill:#633188;}.cls-6{fill:#333;}.cls-7{fill:#fff;}</style></defs><g class="cls-1"><path class="cls-2" d="M289.9,599.41l5.17-19.6h46.47q68.16,0,115.16-24t75.4-63.2a257.17,257.17,0,0,0,40.8-86.71,377.14,377.14,0,0,0,12.39-95.53q0-51.92-23.24-79.36T485.1,203.57q-32,0-41.83,16.66T419,287.83l-136.33,486q-7.25,28.43-7.23,46.54t15.49,26.94q15.49,8.82,52.67,10.78l-4.12,19.6q-31-1.95-72.31-2.45t-86.75-.49q-51.66,0-98.12.49T9,877.67l4.13-19.6q35.13-2,54.74-7.84a54.6,54.6,0,0,0,31-23.51q11.34-17.64,20.65-52.91l136.34-486q7.21-30.36,7.23-48t-14.46-26.45q-14.47-8.82-53.71-9.8L200,184q25.82,1,72.3,2t91.92,1q37.19,0,74.88-1t75.91-1Q639,185,698.38,223.17T757.77,332.9q0,76.44-53.71,136.68T554.3,564.63q-96,34.79-223.09,34.78Z"/></g><g class="cls-1"><path class="cls-3" d="M95.77,169q25.82,1,69.72,2t87.27,1q49.59,0,96.05-1t66.11-1q143.55,0,214.82,55T701,367.16q0,36-14.46,75.57t-49,73.07Q602.87,549.36,543,570.36t-150.79,21H286.85v-20h95q60.93,0,92.43-27t43.38-71.07q11.87-44,11.88-95.09,0-95.09-28.92-142.14T401.49,189q-40.28,0-52.16,17t-11.87,69.07V765.55q0,39,8.26,58.06t32,25q23.75,6,70.22,7v22q-32-1-82.62-2t-106.38-1q-44.41,0-86.76,1t-76.43,2v-20q33.06-2,49.58-8t22.2-24q5.67-18,5.69-54.05V275.06q0-37-5.69-54.55t-22.72-24q-17-6.49-49.06-7.5Z"/></g><g class="cls-1"><path class="cls-4" d="M27.81,161.44q21.69,1,56.81,2t69.2,1q48.52,0,93-1t63-1q125,0,186.94,55.05t62,142.15q0,36-12.4,75.57t-42.85,73.07Q473,541.84,420.28,562.85t-133.23,21H187.9v-20h88.82q73.32,0,112.06-27t52.68-71.07q13.95-44,13.93-95.09,0-95.09-38.72-142.14T284,181.47q-47.52,0-62,17t-14.46,69.07v496.5q0,36,7.75,54.05t30.46,24q22.71,6,66.11,8v20q-26.86-2-68.17-2.51t-83.66-.5q-40.29,0-75.39.5t-56.81,2.51v-20q35.1-2,53.19-8t24.27-24q6.2-18,6.2-54.05V267.55q0-37-6.2-54.55T81,189q-18.07-6.5-53.19-7.5Z"/></g><g class="cls-1"><path class="cls-5" d="M73.74,135.27q25.82,1,69.72,2.06t87.27,1q49.59,0,96.06-1t66.1-1q143.55,0,214.82,56.81T679,339.77q0,37.19-14.46,78t-49,75.39Q580.84,527.76,521,549.43T370.17,571.12H264.82V550.47h95q60.93,0,92.43-27.89t43.39-73.33q11.85-45.44,11.88-98.12,0-98.11-28.93-146.66t-99.14-48.55q-40.29,0-52.17,17.56t-11.87,71.27V750.83q0,40.29,8.26,59.91t32,25.82q23.75,6.2,70.22,7.23v22.72q-32-1-82.62-2.07t-106.37-1q-44.43,0-86.77,1t-76.43,2.07V845.85q33.06-2.05,49.58-8.26t22.2-24.79q5.67-18.59,5.69-55.77V244.75q0-38.2-5.69-56.29T122.8,163.67q-17-6.71-49.06-7.75Z"/></g><path class="cls-6" d="M890.91,122.33a100,100,0,0,0-85,152.82l-20.77,41.76,39.44-19.61a100.08,100.08,0,1,0,66.34-175Z"/><path class="cls-7" d="M855.62,219.25l21-11.58V211L859,220.57l17.62,9.92v3.32l-21-11.83Z"/><path class="cls-7" d="M882.75,236.1l13.18-35.61h3L885.73,236.1Z"/><path class="cls-7" d="M926.06,222.24l-20.95,11.57v-3.36l17.62-9.54L905.11,211v-3.32l20.95,11.84Z"/></svg>